<!-- TODO: improve this earth-list icon or use the other earth icon -->
<svg width="200" height="160" viewBox="0 0 200 160" fill="none" xmlns="http://www.w3.org/2000/svg">
  <circle cx="90" cy="80" r="70" fill="#A3D18D"/>
  <path d="M60 80 Q70 60 90 70 Q110 80 100 100 Q80 110 70 100 Q60 90 60 80Z" fill="#6B9E5B"/>
  <path d="M120 60 Q130 50 140 70 Q135 85 120 80 Q115 70 120 60Z" fill="#6B9E5B"/>
  <path d="M80 110 Q90 120 110 115 Q115 105 100 100 Q90 105 80 110Z" fill="#6B9E5B"/>
  <rect x="120" y="60" width="65" height="75" rx="8" fill="#F7F7F7" stroke="#E0E0E0" stroke-width="2"/>
  <rect x="145" y="80" width="30" height="5" rx="2.5" fill="#D0D0D0"/>
  <rect x="145" y="97" width="30" height="5" rx="2.5" fill="#D0D0D0"/>
  <rect x="145" y="114" width="30" height="5" rx="2.5" fill="#D0D0D0"/>
  <polyline points="135,83 140,88 148,78" fill="none" stroke="#7BC47F" stroke-width="3" stroke-linecap="round" stroke-linejoin="round"/>
  <polyline points="135,100 140,105 148,95" fill="none" stroke="#7BC47F" stroke-width="3" stroke-linecap="round" stroke-linejoin="round"/>
  <ellipse cx="40" cy="135" rx="18" ry="8" fill="#A3D18D"/>
  <path d="M40 135 Q45 140 52 135" stroke="#6B9E5B" stroke-width="2" fill="none"/>
  <path d="M40 135 Q35 130 28 135" stroke="#6B9E5B" stroke-width="2" fill="none"/>
</svg> 