<?xml version="1.0" encoding="UTF-8"?>
<svg width="200" height="200" viewBox="0 0 200 200" fill="none" xmlns="http://www.w3.org/2000/svg">
  <!-- Tree trunk -->
  <path d="M95 120 L95 180 L105 180 L105 120" fill="#8B4513"/>
  
  <!-- Tree leaves -->
  <path d="M100 40 C60 40 40 80 40 120 C40 160 60 180 100 180 C140 180 160 160 160 120 C160 80 140 40 100 40" fill="#4CAF50"/>
  
  <!-- Tree leaves details -->
  <path d="M100 40 C80 40 60 60 60 100 C60 140 80 160 100 160 C120 160 140 140 140 100 C140 60 120 40 100 40" fill="#66BB6A"/>
  
  <!-- Tree leaves highlights -->
  <path d="M100 40 C90 40 80 50 80 80 C80 110 90 130 100 130 C110 130 120 110 120 80 C120 50 110 40 100 40" fill="#81C784"/>
</svg> 